# xmcd CD database file
#
# Track frame offsets:
#	150
#	19155
#	32195
#	53440
#	65675
#	87615
#	99920
#	122400
#	141305
#	157970
#	174445
#	182510
#
# Disc length: 2623 seconds
#
# Revision: 5
# Processed by: cddbd v1.5PL3 Copyright (c) Steve Scherf et al.
# Submitted via: CDex 1.50beta10
#
DISCID=960a3d0c
DTITLE=Lightnin' Hopkins - The Tradition Masters - (Disk 1)
DYEAR=2002
DGENRE=Blues
TTITLE0=In The Evening, The Sun Is Going Down
TTITLE1=Trouble In Mind
TTITLE2=Mama and Papa Hopkins
TTITLE3=The Foot Race Is On
TTITLE4=That Gambling Life
TTITLE5=When The Saints Go Marching In
TTITLE6=Get Off My Toe
TTITLE7=75 Highway
TTITLE8=Bottle Up And Go
TTITLE9=Short Haired Woman
TTITLE10=So Long Baby
TTITLE11=Sante Fe Blues
EXTD=YEAR: 2002
EXTT0=
EXTT1=
EXTT2=
EXTT3=
EXTT4=
EXTT5=
EXTT6=
EXTT7=
EXTT8=
EXTT9=
EXTT10=
EXTT11=
PLAYORDER=
